<svg xmlns="http://www.w3.org/2000/svg" xmlns:xlink="http://www.w3.org/1999/xlink" width="1096" zoomAndPan="magnify" viewBox="0 0 822 821.99997" height="1096" preserveAspectRatio="xMidYMid meet" version="1.0"><path fill="#5271ff" d="M 507.984375 58.257812 C 484.136719 64.503906 465.402344 74.722656 283.71875 180.316406 C 186.066406 237.085938 113.960938 283.070312 101.472656 296.128906 C 72.515625 326.785156 54.347656 376.742188 58.890625 415.347656 C 63.433594 456.222656 76.488281 478.933594 130.425781 545.355469 C 225.808594 661.167969 267.253906 692.960938 341.632812 706.585938 C 405.789062 718.507812 439.285156 709.421875 567.03125 646.40625 C 689.097656 586.230469 712.941406 568.0625 728.839844 520.941406 C 741.898438 481.769531 740.195312 451.113281 715.78125 305.210938 C 691.367188 161.582031 680.011719 125.246094 648.21875 97.429688 C 610.746094 65.070312 548.859375 47.472656 507.984375 58.257812 Z M 598.253906 99.132812 C 648.785156 125.816406 657.871094 150.226562 686.257812 323.378906 C 722.027344 540.8125 722.027344 540.8125 518.769531 634.484375 C 428.496094 675.929688 393.863281 683.308594 339.929688 671.953125 C 283.152344 660.03125 246.816406 632.78125 177.550781 551.03125 C 144.054688 511.292969 110.554688 468.144531 103.742188 455.089844 C 87.84375 426.136719 86.710938 382.988281 101.472656 351.195312 C 121.34375 308.617188 121.910156 308.050781 396.703125 150.226562 C 504.007812 88.914062 507.414062 87.210938 541.480469 87.210938 C 565.894531 87.210938 582.925781 90.617188 598.253906 99.132812 Z M 598.253906 99.132812 " fill-opacity="1" fill-rule="nonzero"/></svg>